# xmcd
#
# Track frame offsets: 
#        150
#        15679
#        34298
#        51691
#        65793
#        79256
#        91482
#        108733
#        123487
#        139065
#
# Disc length: 2091 seconds
#
# Revision: 0
# Processed by: cddbd v1.5.2PL0 Copyright (c) Steve Scherf et al.
# Submitted via: ExactAudioCopy v0.95b4
#
DISCID=9808290a
DTITLE=Frank Halbig - Another Town
DYEAR=2007
DGENRE=Country Acoustic
TTITLE0=A Crackin' Sound
TTITLE1=Johnson Lee
TTITLE2=Turn Off The Lights
TTITLE3=Ain't Life Good
TTITLE4=I Just Try To Live My Life
TTITLE5=Another Town
TTITLE6=I Wanna Run
TTITLE7=Hard To Love You
TTITLE8=Roses
TTITLE9=You Can't Stop My Love
EXTD=
EXTT0=
EXTT1=
EXTT2=
EXTT3=
EXTT4=
EXTT5=
EXTT6=
EXTT7=
EXTT8=
EXTT9=
PLAYORDER=
